<mxfile host="app.diagrams.net" modified="2024-02-22T07:55:27.652Z" agent="Mozilla/5.0 (X11; Linux x86_64) AppleWebKit/537.36 (KHTML, like Gecko) Chrome/121.0.0.0 Safari/537.36" etag="uXYV3F4fvZgaxxvwbCT2" version="23.1.5" type="github">
  <diagram name="Page-1" id="_sqA8WyN1NTwwEKxDKSw">
    <mxGraphModel dx="1050" dy="577" grid="1" gridSize="10" guides="1" tooltips="1" connect="1" arrows="1" fold="1" page="1" pageScale="1" pageWidth="850" pageHeight="1100" math="0" shadow="0">
      <root>
        <mxCell id="0" />
        <mxCell id="1" parent="0" />
        <mxCell id="8_bsjOaWdprMZcgOefph-1" value="" style="rounded=0;whiteSpace=wrap;html=1;fontStyle=1;fillColor=#d5e8d4;gradientColor=#97d077;strokeColor=#82b366;" parent="1" vertex="1">
          <mxGeometry x="160" y="70" width="180" height="250" as="geometry" />
        </mxCell>
        <mxCell id="8_bsjOaWdprMZcgOefph-2" value="" style="rounded=0;whiteSpace=wrap;html=1;fontStyle=1;fillColor=#dae8fc;gradientColor=#7ea6e0;strokeColor=#6c8ebf;" parent="1" vertex="1">
          <mxGeometry x="480" y="70" width="200" height="470" as="geometry" />
        </mxCell>
        <mxCell id="8_bsjOaWdprMZcgOefph-3" value="&lt;span&gt;&lt;u&gt;&lt;font style=&quot;font-size: 16px;&quot;&gt;SHOPIFY&lt;/font&gt;&lt;/u&gt;&lt;/span&gt;" style="text;html=1;align=center;verticalAlign=middle;resizable=0;points=[];autosize=1;strokeColor=none;fillColor=none;fontStyle=1" parent="1" vertex="1">
          <mxGeometry x="205" y="40" width="90" height="30" as="geometry" />
        </mxCell>
        <mxCell id="8_bsjOaWdprMZcgOefph-4" value="&lt;span style=&quot;font-size: 16px;&quot;&gt;&lt;span&gt;&lt;u&gt;ERPNext&lt;br&gt;&lt;/u&gt;&lt;/span&gt;&lt;/span&gt;" style="text;html=1;align=center;verticalAlign=middle;resizable=0;points=[];autosize=1;strokeColor=none;fillColor=none;fontStyle=1" parent="1" vertex="1">
          <mxGeometry x="535" y="40" width="90" height="30" as="geometry" />
        </mxCell>
        <mxCell id="8_bsjOaWdprMZcgOefph-5" style="edgeStyle=none;rounded=0;orthogonalLoop=1;jettySize=auto;html=1;fontStyle=1" parent="1" source="8_bsjOaWdprMZcgOefph-6" target="8_bsjOaWdprMZcgOefph-8" edge="1">
          <mxGeometry relative="1" as="geometry" />
        </mxCell>
        <mxCell id="8_bsjOaWdprMZcgOefph-6" value="API credentails&lt;br&gt;(API key, API password)" style="rounded=1;whiteSpace=wrap;html=1;fontStyle=1;fillColor=#fff2cc;gradientColor=#ffd966;strokeColor=#d6b656;" parent="1" vertex="1">
          <mxGeometry x="190" y="100" width="120" height="80" as="geometry" />
        </mxCell>
        <mxCell id="8_bsjOaWdprMZcgOefph-7" value="" style="edgeStyle=none;rounded=0;orthogonalLoop=1;jettySize=auto;html=1;fontStyle=1" parent="1" source="8_bsjOaWdprMZcgOefph-8" target="8_bsjOaWdprMZcgOefph-10" edge="1">
          <mxGeometry relative="1" as="geometry" />
        </mxCell>
        <mxCell id="8_bsjOaWdprMZcgOefph-8" value="&lt;span&gt;&lt;u&gt;Settings page&lt;/u&gt;&lt;/span&gt;&lt;br&gt;Stored API credentails&lt;br&gt;(API key, API password)" style="rounded=1;whiteSpace=wrap;html=1;fontStyle=1;fillColor=#fff2cc;gradientColor=#ffd966;strokeColor=#d6b656;" parent="1" vertex="1">
          <mxGeometry x="520" y="100" width="120" height="80" as="geometry" />
        </mxCell>
        <mxCell id="8_bsjOaWdprMZcgOefph-9" style="edgeStyle=none;rounded=0;orthogonalLoop=1;jettySize=auto;html=1;exitX=0;exitY=0.5;exitDx=0;exitDy=0;fontStyle=1" parent="1" source="8_bsjOaWdprMZcgOefph-10" target="8_bsjOaWdprMZcgOefph-13" edge="1">
          <mxGeometry relative="1" as="geometry" />
        </mxCell>
        <mxCell id="8_bsjOaWdprMZcgOefph-10" value="Trigger Partial Orders" style="rounded=1;whiteSpace=wrap;html=1;fontStyle=1;fillColor=#fff2cc;gradientColor=#ffd966;strokeColor=#d6b656;" parent="1" vertex="1">
          <mxGeometry x="520" y="210" width="120" height="80" as="geometry" />
        </mxCell>
        <mxCell id="8_bsjOaWdprMZcgOefph-11" value="&lt;span style=&quot;color: rgb(0, 0, 0); font-family: Helvetica; font-size: 12px; font-style: normal; font-variant-ligatures: normal; font-variant-caps: normal; letter-spacing: normal; orphans: 2; text-indent: 0px; text-transform: none; widows: 2; word-spacing: 0px; -webkit-text-stroke-width: 0px; background-color: rgb(251, 251, 251); text-decoration-thickness: initial; text-decoration-style: initial; text-decoration-color: initial; float: none; display: inline !important;&quot;&gt;GET Request&lt;br&gt;(Fulfilled orders)&lt;/span&gt;" style="text;whiteSpace=wrap;html=1;fontStyle=0;align=center;" parent="1" vertex="1">
          <mxGeometry x="350" y="210" width="100" height="40" as="geometry" />
        </mxCell>
        <mxCell id="8_bsjOaWdprMZcgOefph-12" style="edgeStyle=none;rounded=0;orthogonalLoop=1;jettySize=auto;html=1;entryX=0;entryY=0.5;entryDx=0;entryDy=0;fontStyle=1" parent="1" source="8_bsjOaWdprMZcgOefph-13" target="8_bsjOaWdprMZcgOefph-15" edge="1">
          <mxGeometry relative="1" as="geometry">
            <Array as="points">
              <mxPoint x="250" y="360" />
            </Array>
          </mxGeometry>
        </mxCell>
        <mxCell id="8_bsjOaWdprMZcgOefph-13" value="Fulfilled Orders" style="rounded=1;whiteSpace=wrap;html=1;fontStyle=1;fillColor=#fff2cc;gradientColor=#ffd966;strokeColor=#d6b656;" parent="1" vertex="1">
          <mxGeometry x="190" y="210" width="120" height="80" as="geometry" />
        </mxCell>
        <mxCell id="8_bsjOaWdprMZcgOefph-14" style="rounded=0;orthogonalLoop=1;jettySize=auto;html=1;fontStyle=1" parent="1" source="8_bsjOaWdprMZcgOefph-15" target="8_bsjOaWdprMZcgOefph-17" edge="1">
          <mxGeometry relative="1" as="geometry" />
        </mxCell>
        <mxCell id="8_bsjOaWdprMZcgOefph-15" value="Partial Order JSON" style="rounded=1;whiteSpace=wrap;html=1;fontStyle=1;fillColor=#fff2cc;gradientColor=#ffd966;strokeColor=#d6b656;" parent="1" vertex="1">
          <mxGeometry x="520" y="320" width="120" height="80" as="geometry" />
        </mxCell>
        <mxCell id="8_bsjOaWdprMZcgOefph-16" value="&lt;span style=&quot;color: rgb(0, 0, 0); font-family: Helvetica; font-size: 12px; font-style: normal; font-variant-ligatures: normal; font-variant-caps: normal; letter-spacing: normal; orphans: 2; text-indent: 0px; text-transform: none; widows: 2; word-spacing: 0px; -webkit-text-stroke-width: 0px; background-color: rgb(251, 251, 251); text-decoration-thickness: initial; text-decoration-style: initial; text-decoration-color: initial; float: none; display: inline !important;&quot;&gt;Response&lt;br&gt;(Fulfilled Order JSON)&lt;/span&gt;" style="text;whiteSpace=wrap;html=1;fontStyle=0;align=center;" parent="1" vertex="1">
          <mxGeometry x="310" y="320" width="180" height="40" as="geometry" />
        </mxCell>
        <mxCell id="8_bsjOaWdprMZcgOefph-17" value="Update Sales Order" style="rounded=1;whiteSpace=wrap;html=1;fontStyle=1;fillColor=#fff2cc;gradientColor=#ffd966;strokeColor=#d6b656;" parent="1" vertex="1">
          <mxGeometry x="520" y="430" width="120" height="80" as="geometry" />
        </mxCell>
      </root>
    </mxGraphModel>
  </diagram>
</mxfile>
